# Blender v2.79 (sub 0) OBJ File: 'room1.blend'
# www.blender.org
mtllib room1.mtl
o Cube.001
v -4.002687 -0.050148 -4.961952
v -4.002687 1.949852 -4.961952
v -4.002687 -0.050148 -5.341952
v -4.002687 1.949852 -5.341952
v -3.782687 -0.050148 -4.961952
v -3.782687 1.949852 -4.961952
v -3.782687 -0.050148 -5.341952
v -3.782687 1.949852 -5.341952
vn -1.0000 0.0000 0.0000
vn 0.0000 0.0000 -1.0000
vn 1.0000 0.0000 0.0000
vn 0.0000 0.0000 1.0000
vn 0.0000 -1.0000 0.0000
vn 0.0000 1.0000 0.0000
usemtl None
s off
f 1//1 2//1 4//1 3//1
f 3//2 4//2 8//2 7//2
f 7//3 8//3 6//3 5//3
f 5//4 6//4 2//4 1//4
f 3//5 7//5 5//5 1//5
f 8//6 4//6 2//6 6//6
o Plane.005_Plane.006
v -6.914289 9.206487 -5.822302
v -6.914289 -2.793513 -5.822302
v 7.005712 9.206486 -5.822301
v 7.005711 -2.793514 -5.822301
vn -0.0000 0.0000 1.0000
usemtl Material.001
s off
f 9//7 10//7 12//7 11//7
o Plane.004_Plane.005
v 6.603239 8.857469 5.992943
v 6.603238 8.857469 -6.007057
v -6.476761 8.857469 5.992944
v -6.476762 8.857469 -6.007056
vn 0.0000 1.0000 -0.0000
usemtl Material.005
s off
f 13//8 14//8 16//8 15//8
o Plane.003_Plane.004
v 6.127944 9.206487 5.935904
v 6.127944 -2.793514 5.935904
v 6.127944 9.206487 -2.704096
v 6.127944 -2.793514 -2.704096
vn 1.0000 -0.0000 0.0000
usemtl Material.002
s off
f 17//9 18//9 20//9 19//9
o Plane_Plane.001
v -6.300000 0.000000 6.000000
v 6.300000 0.000000 6.000000
v -6.300000 0.000000 -6.000000
v 6.300000 0.000000 -6.000000
vn 0.0000 1.0000 0.0000
usemtl Material.006
s off
f 21//10 22//10 24//10 23//10
o Cube
v 1.645703 1.813890 -5.569222
v 1.645703 1.813890 -3.309223
v -4.314297 1.813890 -3.309223
v -4.314296 1.813890 -5.569223
v 1.645704 1.973890 -5.569222
v 1.645701 1.973890 -3.309222
v -4.314298 1.973890 -3.309223
v -4.314297 1.973890 -5.569223
vn 0.0000 -1.0000 0.0000
vn 0.0000 1.0000 0.0000
vn 1.0000 0.0000 0.0000
vn -0.0000 -0.0000 1.0000
vn -1.0000 -0.0000 -0.0000
vn 0.0000 0.0000 -1.0000
usemtl Material
s off
f 25//11 26//11 27//11 28//11
f 29//12 32//12 31//12 30//12
f 25//13 29//13 30//13 26//13
f 26//14 30//14 31//14 27//14
f 27//15 31//15 32//15 28//15
f 29//16 25//16 28//16 32//16
o Plane.002_Plane.003
v -6.046225 9.206487 5.974465
v -6.046226 -2.793514 5.974465
v -6.046225 9.206487 -6.025535
v -6.046226 -2.793514 -6.025535
vn 1.0000 -0.0000 0.0000
usemtl Material.004
s off
f 33//17 34//17 36//17 35//17
o Cube.004
v -4.002687 -0.050148 -3.652992
v -4.002687 1.949852 -3.652992
v -4.002687 -0.050148 -4.032992
v -4.002687 1.949852 -4.032992
v -3.782687 -0.050148 -3.652992
v -3.782687 1.949852 -3.652992
v -3.782687 -0.050148 -4.032992
v -3.782687 1.949852 -4.032992
vn -1.0000 0.0000 0.0000
vn 0.0000 0.0000 -1.0000
vn 1.0000 0.0000 0.0000
vn 0.0000 0.0000 1.0000
vn 0.0000 -1.0000 0.0000
vn 0.0000 1.0000 0.0000
usemtl Material.007
s off
f 37//18 38//18 40//18 39//18
f 39//19 40//19 44//19 43//19
f 43//20 44//20 42//20 41//20
f 41//21 42//21 38//21 37//21
f 39//22 43//22 41//22 37//22
f 44//23 40//23 38//23 42//23
o Cube.002_Cube.006
v -4.002687 -0.050148 -5.025674
v -4.002687 1.949852 -5.025674
v -4.002687 -0.050148 -5.405674
v -4.002687 1.949852 -5.405674
v -3.782687 -0.050148 -5.025674
v -3.782687 1.949852 -5.025674
v -3.782687 -0.050148 -5.405674
v -3.782687 1.949852 -5.405674
vn -1.0000 0.0000 0.0000
vn 0.0000 0.0000 -1.0000
vn 1.0000 0.0000 0.0000
vn 0.0000 0.0000 1.0000
vn 0.0000 -1.0000 0.0000
vn 0.0000 1.0000 0.0000
usemtl Material.009
s off
f 45//24 46//24 48//24 47//24
f 47//25 48//25 52//25 51//25
f 51//26 52//26 50//26 49//26
f 49//27 50//27 46//27 45//27
f 47//28 51//28 49//28 45//28
f 52//29 48//29 46//29 50//29
o Cube.003_Cube.007
v 0.979024 -0.050148 -3.652992
v 0.979024 1.949852 -3.652992
v 0.979024 -0.050148 -4.032992
v 0.979024 1.949852 -4.032992
v 1.199024 -0.050148 -3.652992
v 1.199024 1.949852 -3.652992
v 1.199024 -0.050148 -4.032992
v 1.199024 1.949852 -4.032992
vn -1.0000 0.0000 0.0000
vn 0.0000 0.0000 -1.0000
vn 1.0000 0.0000 0.0000
vn 0.0000 0.0000 1.0000
vn 0.0000 -1.0000 0.0000
vn 0.0000 1.0000 0.0000
usemtl Material.010
s off
f 53//30 54//30 56//30 55//30
f 55//31 56//31 60//31 59//31
f 59//32 60//32 58//32 57//32
f 57//33 58//33 54//33 53//33
f 55//34 59//34 57//34 53//34
f 60//35 56//35 54//35 58//35
o Cube.005_Cube.008
v 0.979024 -0.050148 -4.981139
v 0.979024 1.949852 -4.981139
v 0.979024 -0.050148 -5.361139
v 0.979024 1.949852 -5.361139
v 1.199024 -0.050148 -4.981139
v 1.199024 1.949852 -4.981139
v 1.199024 -0.050148 -5.361139
v 1.199024 1.949852 -5.361139
vn -1.0000 0.0000 0.0000
vn 0.0000 0.0000 -1.0000
vn 1.0000 0.0000 0.0000
vn 0.0000 0.0000 1.0000
vn 0.0000 -1.0000 0.0000
vn 0.0000 1.0000 0.0000
usemtl Material.011
s off
f 61//36 62//36 64//36 63//36
f 63//37 64//37 68//37 67//37
f 67//38 68//38 66//38 65//38
f 65//39 66//39 62//39 61//39
f 63//40 67//40 65//40 61//40
f 68//41 64//41 62//41 66//41
o Plane.001_Plane.007
v -6.914289 2.149822 5.936922
v -6.914289 -0.490178 5.936922
v 7.005711 2.149821 5.936923
v 7.005711 -0.490179 5.936923
vn -0.0000 0.0000 1.0000
usemtl Material.012
s off
f 69//42 70//42 72//42 71//42
o Plane.006_Plane.008
v -6.914289 9.121979 5.936922
v -6.914289 6.481979 5.936922
v 7.005711 9.121979 5.936923
v 7.005711 6.481978 5.936923
vn -0.0000 0.0000 1.0000
usemtl Material.013
s off
f 73//43 74//43 76//43 75//43
o Plane.007_Plane.009
v -6.881283 6.918752 5.936923
v -6.881283 1.038752 5.936923
v -4.001283 6.918752 5.936923
v -4.001283 1.038752 5.936923
vn 0.0000 0.0000 1.0000
usemtl Material.014
s off
f 77//44 78//44 80//44 79//44
o Plane.008_Plane.010
v 4.164999 6.918752 5.936923
v 4.164999 1.038752 5.936923
v 7.044999 6.918752 5.936923
v 7.044999 1.038752 5.936923
vn 0.0000 0.0000 1.0000
usemtl Material.015
s off
f 81//45 82//45 84//45 83//45
o Plane.009_Plane.011
v 6.127944 9.206487 -5.008274
v 6.127944 -2.793514 -5.008274
v 6.127944 9.206487 -5.968274
v 6.127944 -2.793514 -5.968274
vn 1.0000 -0.0000 0.0000
usemtl Material.016
s off
f 85//46 86//46 88//46 87//46
o Plane.010_Plane.012
v 6.127944 9.190277 -2.476015
v 6.127944 6.070278 -2.476015
v 6.127944 9.190277 -5.236014
v 6.127944 6.070278 -5.236014
vn 1.0000 0.0000 0.0000
usemtl Material.017
s off
f 89//47 90//47 92//47 91//47
